<?xml version="1.0" encoding="UTF-8"?>
<svg id="Ebene_1" xmlns="http://www.w3.org/2000/svg" version="1.1" viewBox="0 0 1612.0708246 546.8535461">
  <!-- Generator: Adobe Illustrator 29.2.1, SVG Export Plug-In . SVG Version: 2.1.0 Build 116)  -->
  <defs>
    <style>
      .st0 {
        fill: #004e5a;
      }
    </style>
  </defs>
  <g>
    <path class="st0" d="M539.4949786,420.0717591h-16.9566594l-4.4626423,12.940972h-6.502059l16.1920014-45.0052985h6.6293375l16.1920014,45.0052985h-6.5661916l-4.5257882-12.940972ZM531.0166489,394.1908018s-1.0202017,4.07982-1.7848596,6.3747804l-5.0358891,14.2788767h13.6414973l-4.9727431-14.2788767c-.7646579-2.2949604-1.720727-6.3747804-1.720727-6.3747804h-.1272785Z"/>
    <path class="st0" d="M592.7151698,388.0074325h15.7460332c7.5863932,0,13.0682505,4.2070985,13.0682505,11.4738154,0,4.3994963-2.1676819,7.9050829-5.6101225,9.6899425v.1272785c4.7171994,1.403024,7.3949821,5.8646796,7.3949821,10.9015553,0,8.4783297-6.5661916,12.8127068-14.4702878,12.8127068h-16.1288555v-45.0052985ZM608.461203,406.9403626c4.07982,0,6.6293375-2.8691938,6.6293375-6.8207486,0-3.9525415-2.422239-6.6303242-6.756616-6.6303242h-9.3071202v13.4510728h9.4343987ZM609.162715,427.5308737c4.8444779,0,7.7126851-3.060605,7.7126851-7.6505258,0-4.5889342-3.0596183-7.7126851-7.7768177-7.7126851h-10.0717781v15.3632109h10.1359107Z"/>
    <path class="st0" d="M641.4125327,400.7569933h5.9929448v5.6091358c0,1.3388914-.1282652,2.422239-.1282652,2.422239h.1282652c1.4661699-4.7171994,5.2273002-8.4141971,10.1990567-8.4141971.8287905,0,1.5934484.1272785,1.5934484.1272785v6.1202233s-.8287905-.1914111-1.7848596-.1914111c-3.9525415,0-7.5854066,2.8050612-9.0515765,7.5854066-.5742334,1.8489922-.7656446,3.8252629-.7656446,5.8015336v13.1955291h-6.1833693v-32.2557377Z"/>
    <path class="st0" d="M691.7063041,412.8681881h1.403024v-.5732468c0-5.2914328-2.9964724-7.0762924-7.0762924-7.0762924-4.9727431,0-8.9884305,3.1237509-8.9884305,3.1237509l-2.5495175-4.5257882s4.6530668-3.8252629,12.0480488-3.8252629c8.15964,0,12.7495608,4.4626423,12.7495608,12.6222823v20.3991h-5.737401v-3.0596183c0-1.4661699.1272785-2.5505042.1272785-2.5505042h-.1272785s-2.6136501,6.3747804-10.3273219,6.3747804c-5.5459899,0-10.9647012-3.378308-10.9647012-9.817221,0-10.6450249,14.0243196-11.0919798,19.4430309-11.0919798ZM684.5668658,428.8056325c5.2273002,0,8.6056082-5.4828439,8.6056082-10.2631893v-1.0202017h-1.5934484c-4.6540534,0-13.0682505.3186897-13.0682505,6.1192367,0,2.6136501,2.0404033,5.1641543,6.0560907,5.1641543Z"/>
    <path class="st0" d="M718.0934156,400.7569933h5.9929448v4.2702445c0,1.2757454-.1282652,2.359093-.1282652,2.359093h.1282652c1.2747588-2.8050612,5.099035-7.3949821,12.1111948-7.3949821,7.5863932,0,11.0919798,4.1439526,11.0919798,12.3677252v20.6536571h-6.1833693v-19.2516198c0-4.5257882-.9560691-8.0955074-6.1192367-8.0955074-4.9086105,0-8.861152,3.2510295-10.2000433,7.9040963-.3818356,1.2747588-.5101008,2.7409286-.5101008,4.3353637v15.1076672h-6.1833693v-32.2557377Z"/>
    <path class="st0" d="M778.5852569,399.9913488c7.458128,0,9.9444996,5.1000217,9.9444996,5.1000217h.1272785s-.1272785-.9560691-.1272785-2.1676819v-14.916256h6.1833693v45.0052985h-5.8646796v-3.0596183c0-1.2747588.0631459-2.1676819.0631459-2.1676819h-.1272785s-2.6136501,5.9919581-10.581879,5.9919581c-8.7328868,0-14.2157307-6.8838946-14.2157307-16.8925268,0-10.2631893,6.0560907-16.8935134,14.598553-16.8935134ZM779.4140475,428.4228102c4.7803453,0,9.3071202-3.378308,9.3071202-11.6020806,0-5.737401-2.9964724-11.4738154-9.1157091-11.4738154-5.1000217,0-9.3071202,4.2070985-9.3071202,11.537948,0,7.0121598,3.7601437,11.537948,9.1157091,11.537948Z"/>
    <path class="st0" d="M854.9464634,399.9913488c9.6258099,0,17.4026276,7.0762924,17.4026276,16.8293808,0,9.817221-7.7768177,16.9566594-17.4026276,16.9566594s-17.4026276-7.1394383-17.4026276-16.9566594c0-9.7530884,7.7768177-16.8293808,17.4026276-16.8293808ZM854.9464634,428.4228102c6.1202233,0,11.0919798-4.8444779,11.0919798-11.6020806,0-6.6934701-4.9717565-11.4738154-11.0919798-11.4738154-6.0560907,0-11.0919798,4.7803453-11.0919798,11.4738154,0,6.7576027,5.0358891,11.6020806,11.0919798,11.6020806Z"/>
    <path class="st0" d="M890.7689603,406.174718h-4.0166741v-4.9717565h4.0166741v-1.5303025c0-10.6450249,8.0323615-11.9839162,12.1121814-11.9839162,1.4020373,0,2.3581064.1914111,2.3581064.1914111v5.2904461s-.6373794-.1272785-1.5934484-.1272785c-2.359093,0-6.7576027.7646579-6.7576027,6.7576027v1.4020373h7.6495392v4.9717565h-7.6495392v26.838013h-6.1192367v-26.838013Z"/>
    <path class="st0" d="M947.3704195,423.0682314s4.7803453,4.8444779,11.4738154,4.8444779c4.2080852,0,7.7778044-2.3581064,7.7778044-6.6293375,0-9.7530884-21.8021239-7.6495392-21.8021239-21.4824476,0-7.0131464,6.0560907-12.5591363,14.5344204-12.5591363,8.3510511,0,12.7495608,4.5267749,12.7495608,4.5267749l-2.8682072,5.2273002s-4.1439526-3.8884089-9.8813536-3.8884089c-4.7803453,0-8.15964,2.9954857-8.15964,6.5652049,0,9.3071202,21.8021239,6.8207486,21.8021239,21.4193016,0,6.9480272-5.3545787,12.6854282-14.2798633,12.6854282-9.5616773,0-14.916256-5.9278255-14.916256-5.9278255l3.5697192-4.781332Z"/>
    <path class="st0" d="M1005.3117567,399.9913488c8.0955074,0,12.1111948,4.7171994,12.1111948,4.7171994l-2.9323398,4.3353637s-3.4424406-3.6969977-8.9242979-3.6969977c-6.502059,0-11.2192583,4.8444779-11.2192583,11.4738154,0,6.5661916,4.7171994,11.6020806,11.4106695,11.6020806,5.9919581,0,9.9444996-4.3343771,9.9444996-4.3343771l2.4863716,4.5257882s-4.4626423,5.1631676-12.8768394,5.1631676c-10.1359107,0-17.2763357-7.2035709-17.2763357-16.8925268,0-9.5626639,7.140425-16.8935134,17.2763357-16.8935134Z"/>
    <path class="st0" d="M1034.7584866,388.0074325h6.1833693v16.5106911c0,1.5293158-.1272785,2.676796-.1272785,2.676796h.1272785c1.403024-3.1237509,5.4828439-7.2035709,11.9207703-7.2035709,7.5863932,0,11.0919798,4.1439526,11.0919798,12.3677252v20.6536571h-6.1833693v-19.2516198c0-4.5257882-.9560691-8.0955074-6.1192367-8.0955074-4.8454646,0-8.861152,3.3141754-10.2000433,7.9682289-.3818356,1.2747588-.5101008,2.7409286-.5101008,4.2712311v15.1076672h-6.1833693v-45.0052985Z"/>
    <path class="st0" d="M1078.9941939,400.7569933h6.5661916l6.6934701,22.6299278c.5101008,1.657581.7646579,3.4424406.8287905,3.4424406h.1272785s.3186897-1.7848596.8287905-3.4424406l7.0121598-22.5667819h5.6732684l6.9490138,22.5667819c.5101008,1.657581.8919365,3.4424406.8919365,3.4424406h.1282652s.2545571-1.7848596.7646579-3.4424406l6.7576027-22.6299278h6.502059l-10.3914545,32.2557377h-6.8207486l-6.6934701-20.7177897c-.5101008-1.657581-.8919365-3.5065732-.8919365-3.5065732h-.1282652s-.3818356,1.8489922-.8919365,3.5065732l-6.6293375,20.7177897h-6.8848812l-10.3914545-32.2557377Z"/>
    <path class="st0" d="M1161.0316288,412.8681881h1.403024v-.5732468c0-5.2914328-2.9964724-7.0762924-7.0762924-7.0762924-4.9727431,0-8.9884305,3.1237509-8.9884305,3.1237509l-2.5495175-4.5257882s4.6530668-3.8252629,12.0480488-3.8252629c8.15964,0,12.7495608,4.4626423,12.7495608,12.6222823v20.3991h-5.737401v-3.0596183c0-1.4661699.1272785-2.5505042.1272785-2.5505042h-.1272785s-2.6136501,6.3747804-10.3273219,6.3747804c-5.5459899,0-10.9647012-3.378308-10.9647012-9.817221,0-10.6450249,14.0243196-11.0919798,19.4430309-11.0919798ZM1153.8921904,428.8056325c5.2273002,0,8.6056082-5.4828439,8.6056082-10.2631893v-1.0202017h-1.5934484c-4.6540534,0-13.0682505.3186897-13.0682505,6.1192367,0,2.6136501,2.0404033,5.1641543,6.0560907,5.1641543Z"/>
    <path class="st0" d="M1187.4187403,400.7569933h5.9929448v5.6091358c0,1.3388914-.1282652,2.422239-.1282652,2.422239h.1282652c1.4661699-4.7171994,5.2273002-8.4141971,10.1990567-8.4141971.8287905,0,1.5934484.1272785,1.5934484.1272785v6.1202233s-.8287905-.1914111-1.7848596-.1914111c-3.9525415,0-7.5854066,2.8050612-9.0515765,7.5854066-.5742334,1.8489922-.7656446,3.8252629-.7656446,5.8015336v13.1955291h-6.1833693v-32.2557377Z"/>
    <path class="st0" d="M1218.5250244,429.4430119l16.2551474-20.3991c1.403024-1.7217136,2.6777827-2.9964724,2.6777827-2.9964724v-.1272785s-1.0202017.1272785-3.1237509.1272785h-15.1086538v-5.2904461h26.5834559v3.5697192l-16.256134,20.4622459c-1.3388914,1.657581-2.7409286,2.9323398-2.7409286,2.9323398v.1282652s1.0833476-.1282652,3.1868969-.1282652h16.3834126v5.2914328h-27.857228v-3.5697192Z"/>
    <path class="st0" d="M1290.6159864,388.0074325h14.916256c13.7697625,0,22.8213389,8.2227859,22.8213389,22.4385167,0,14.2798633-9.0515765,22.5667819-22.8213389,22.5667819h-14.916256v-45.0052985ZM1305.0862742,427.5308737c10.1359107,0,16.7652482-5.9929448,16.7652482-17.0849246,0-11.0278472-6.6934701-16.9566594-16.7652482-16.9566594h-8.15964v34.0415839h8.15964Z"/>
    <path class="st0" d="M1346.0058328,388.0074325h6.2465152v6.3106478h-6.2465152v-6.3106478ZM1346.0689788,400.7569933h6.1833693v32.2557377h-6.1833693v-32.2557377Z"/>
    <path class="st0" d="M1383.2313537,441.0450925c5.6101225,0,10.2000433-2.4863716,10.2000433-9.0525631v-2.3581064c0-1.0202017.0641326-2.0404033.0641326-2.0404033h-.1282652c-1.9121381,3.1878835-4.9086105,5.0358891-9.5616773,5.0358891-8.9884305,0-14.4071419-7.2035709-14.4071419-16.5097045,0-9.2439743,5.1641543-16.1288555,14.0884522-16.1288555,7.7768177,0,10.1359107,4.781332,10.1359107,4.781332h.1272785s-.0641326-.4459682-.0641326-1.0202017v-2.9954857h5.9288122v30.9168463c0,10.6460116-8.0955074,14.7258315-16.2551474,14.7258315-3.8893955,0-7.9050829-1.0833476-11.0288338-2.6777827l2.0404033-4.8444779s4.0156874,2.1676819,8.8601653,2.1676819ZM1393.5586755,416.1833502c0-8.4141971-4.07982-10.836436-9.1157091-10.836436-5.6101225,0-8.7970194,4.07982-8.7970194,10.6450249,0,6.6934701,3.5697192,11.2833909,9.3712528,11.2833909,4.4616556,0,8.5414756-2.676796,8.5414756-11.0919798Z"/>
    <path class="st0" d="M1418.7973202,388.0074325h6.2465152v6.3106478h-6.2465152v-6.3106478ZM1418.8604661,400.7569933h6.1833693v32.2557377h-6.1833693v-32.2557377Z"/>
    <path class="st0" d="M1445.6323732,406.174718h-4.2070985v-4.9717565h4.3985097v-9.3071202h5.9919581v9.3071202h7.7778044v4.9717565h-7.7778044v14.3439959c0,6.4379264,4.5257882,7.2667169,6.8848812,7.2667169.8929231,0,1.4661699-.1272785,1.4661699-.1272785v5.4818573s-.8919365.1272785-2.1676819.1272785c-4.1429659,0-12.3667385-1.2747588-12.3667385-12.0480488v-15.0445212Z"/>
    <path class="st0" d="M1477.0553737,424.6616799s3.6338518,3.7611303,9.2429876,3.7611303c2.6777827,0,5.3555654-1.4020373,5.3555654-4.0156874,0-5.9288122-16.5748237-4.7171994-16.5748237-15.2359324,0-5.8646796,5.2273002-9.1798417,11.6662132-9.1798417,7.0753057,0,10.3904678,3.5697192,10.3904678,3.5697192l-2.4863716,4.6540534s-2.8682072-2.8682072-7.9682289-2.8682072c-2.6777827,0-5.2914328,1.1464936-5.2914328,3.9515548,0,5.8015336,16.5748237,4.5267749,16.5748237,15.1086538,0,5.3545787-4.5899208,9.3702661-11.6662132,9.3702661-7.9040963,0-12.23946-4.7171994-12.23946-4.7171994l2.9964724-4.3985097Z"/>
  </g>
  <polygon class="st0" points="652.2249618 194.3255913 700.5498179 194.3255913 700.5498179 316.7628038 723.40273 316.7628038 723.40273 194.3255913 771.5384213 194.3255913 771.5384213 172.8083743 652.2249618 172.8083743 652.2249618 194.3255913"/>
  <polygon class="st0" points="1211.1101765 172.8072483 1184.5077474 172.8072483 1147.0936479 236.3300341 1141.4524827 245.0423127 1147.0621205 253.4260864 1186.8272684 316.7616778 1213.817035 316.7616778 1167.8995264 244.3166179 1211.1101765 172.8072483"/>
  <rect class="st0" x="1290.7755901" y="172.8083743" width="22.8529121" height="143.9544296"/>
  <path class="st0" d="M856.9553463,172.8083743l-52.8310324,143.9544296h24.282908l16.4595915-46.0925986,3.7720366-11.3192063,17.9616502-48.7271129c.2522198-.6983898.5202033-1.4685608.8016985-2.3096687.2792433.8385744.5449748,1.606212.7971946,2.2989719l38.211294,106.1496147h24.2648923l-52.8310324-143.9544296h-20.8892011Z"/>
  <path class="st0" d="M565.2158995,233.7338032l-.0045039-.0014075c-14.8111552-6.2627068-26.5078467-11.2091417-26.5078467-22.6606508,0-8.9822326,8.7646368-18.273547,23.4316663-18.273547,15.1962407,0,25.9628718,10.0170092,26.0597062,10.1073692l4.4251057,4.255927,11.4579835-19.5467501-2.5627329-2.6421146c-.5742504-.5908586-14.3359912-14.4564711-39.3800624-14.4564711-26.1700523,0-46.667412,17.9827624-46.667412,40.9395462,0,25.0840436,21.6548682,34.4277161,39.0580318,41.9349135,15.6353733,6.7463157,27.9851338,12.0738952,27.9851338,24.9176799,0,10.8724733-9.0078487,18.4649638-21.904836,18.4649638-18.6394909,0-31.5252184-13.0864336-31.6423204-13.2069136l-3.8846347-4.076333-13.7121976,17.7299796,2.6302918,3.0010211c.6755887.7690451,16.9122359,18.8328781,46.2282794,18.8328781,26.8028537,0,45.5234152-16.9125174,45.5234152-41.128148,0-27.051414-22.4745824-36.5549759-40.533067-44.1919426ZM564.1709891,236.2044872h0v-.0002815.0002815Z"/>
  <polygon class="st0" points="1378.4444772 172.8083743 1378.4444772 194.3255913 1426.7670814 194.3255913 1426.7670814 316.7628038 1449.6222454 316.7628038 1449.6222454 194.3255913 1497.7579368 194.3255913 1497.7579368 172.8083743 1378.4444772 172.8083743"/>
  <polygon class="st0" points="193.7525024 114.10625 165.9817689 244.2428482 235.4104233 244.2428482 250.3528985 174.2352517 411.1878929 174.2352517 424.0161442 114.10625 193.7525024 114.10625"/>
  <polygon class="st0" points="303.376354 211.7790553 288.3495933 282.1897125 126.9759685 282.1897125 114.1513794 342.3187142 344.9463342 342.3187142 372.8050084 211.7790553 303.376354 211.7790553"/>
  <path class="st0" d="M1076.5643408,280.4151335c-.1599121.1449091-16.2600098,15.355825-39.7099609,15.355825-28.8500977,0-49.9199219-21.8495975-50.6401367-52.1784627.7202148-30.3288651,21.7900391-52.1784627,50.6401367-52.1784627,23.4499512,0,39.5500488,15.210979,39.7099609,15.3557619l1.0800781,1.0340555,11.1000977-17.1859972-.670166-.7445528c-.7199707-.7858923-18.0598145-19.3678391-52.0200195-19.3678391-40.8200684,0-71.75,31.2905292-72.619873,73.0870343.869873,41.7965052,31.7998047,73.0870343,72.619873,73.0870343,33.9602051,0,51.3000488-18.5819468,52.0200195-19.3678391l.670166-.7444897-11.1000977-17.1861234-1.0800781,1.0340555Z"/>
</svg>